<svg width="16" height="14" viewBox="0 0 16 14" fill="none" xmlns="http://www.w3.org/2000/svg">
<g clip-path="url(#clip0)">
<path d="M4.07054 3.0085C3.87701 3.18085 3.8798 3.45785 4.07678 3.62719C4.27376 3.79653 4.59033 3.79409 4.78386 3.62173L7.44208 1.25438L7.55802 12.7533L4.85248 10.4274C4.65551 10.258 4.33893 10.2605 4.1454 10.4328C3.95187 10.6052 3.95467 10.8822 4.15164 11.0515L7.6469 14.0564C7.88329 14.2596 8.26315 14.2567 8.49539 14.0498L11.9295 10.9915C12.123 10.8191 12.1202 10.5421 11.9233 10.3728C11.7263 10.2035 11.4097 10.2059 11.2162 10.3782L8.55798 12.7456L8.44204 1.24667L11.1476 3.5726C11.3445 3.74194 11.6611 3.73947 11.8547 3.56715C12.0482 3.39482 12.0454 3.11779 11.8484 2.94845L8.35316 -0.0564044C8.11678 -0.259612 7.73692 -0.256698 7.50466 -0.0498537L4.07054 3.0085Z" fill="#212121"/>
</g>
<defs>
<clipPath id="clip0">
<rect width="16" height="14" fill="white"/>
</clipPath>
</defs>
</svg>
